{"title":"Candace Cage - 19 Year Old Mouthful","uid":9011314,"size":911257622,"categoryP":"porn","categoryS":"movie_clips","magnet":"?xt=urn:btih:6ce263c8ae8041a9cc3e9e11525c454f0338e794&amp;dn=Candace+Cage+-+19+Year+Old+Mouthful&amp;tr=udp%3A%2F%2Ftracker.openbittorrent.com%3A80&amp;tr=udp%3A%2F%2Fopen.demonii.com%3A1337&amp;tr=udp%3A%2F%2Ftracker.coppersurfer.tk%3A6969&amp;tr=udp%3A%2F%2Fexodus.desync.com%3A6969","seeders":0,"leechers":1,"uploader":null,"files":2,"time":1381111689,"description":" &lt;a href=&quot;\nhttp://www.hostpornpics.net/pornmg/share.php?id=CA10_5251FB00&quot; rel=&quot;nofollow&quot; target=&quot;_NEW&quot;&gt;\nhttp://www.hostpornpics.net/pornmg/share.php?id=CA10_5251FB00&lt;/a&gt;\n\n\n\nYou know what's better than a big mouthful? A bigmouthful with a young 19-year-old broad. Yes my friends, the girls are getting younger but the objective is the same. Fuck 'em and dump loads of cum down their throats. This week's update is starring Candace Cage. This girl is new to the bizz. She is an all-natural girl that loves to get down and dirty with some D. Mike Adriano lays it on her in this great episode of BigMouthfuls. I suggest you catch this video.\n\n\nFormat : MPEG-4\nFormat profile : Base Media\nCodec ID : isom\nFile size : 869 MiB\nDuration : 39mn 9s\nOverall bit rate mode : Variable\nOverall bit rate : 3 103 Kbps\nWriting application : Lavf52.64.2\n\nVideo\nID : 1\nFormat : AVC\nFormat/Info : Advanced Video Codec\nFormat profile : &lt;a class=&quot;__cf_email__&quot; href=&quot;/cdn-cgi/l/email-protection&quot; data-cfemail=&quot;2d65444a456d611e031c&quot;&gt;[email&amp;#160;protected]&lt;/a&gt;&lt;script cf-hash='f9e31' type=&quot;text/javascript&quot;&gt;\n/* &lt;![CDATA[ */!function(){try{var t=&quot;currentScript&quot;in document?document.currentScript:function(){for(var t=document.getElementsByTagName(&quot;script&quot;),e=t.length;e--;)if(t[e].getAttribute(&quot;cf-hash&quot;))return t[e]}();if(t&amp;&amp;t.previousSibling){var e,r,n,i,c=t.previousSibling,a=c.getAttribute(&quot;data-cfemail&quot;);if(a){for(e=&quot;&quot;,r=parseInt(a.substr(0,2),16),n=2;a.length-n;n+=2)i=parseInt(a.substr(n,2),16)^r,e+=String.fromCharCode(i);e=document.createTextNode(e),c.parentNode.replaceChild(e,c)}}}catch(u){}}();/* ]]&gt; */&lt;/script&gt;\nFormat settings, CABAC : Yes\nFormat settings, ReFrames : 5 frames\nCodec ID : avc1\nCodec ID/Info : Advanced Video Coding\nDuration : 39mn 9s\nBit rate : 3 000 Kbps\nWidth : 1 280 pixels\nHeight : 720 pixels\nDisplay aspect ratio : 16:9\nFrame rate mode : Constant\nFrame rate : 29.000 fps\nColor space : YUV\nChroma subsampling : 4:2:0\nBit depth : 8 bits\nScan type : Progressive\nBits/(Pixel*Frame) : 0.112\nStream size : 840 MiB (97%)\n\nAudio\nID : 2\nFormat : AAC\nFormat/Info : Advanced Audio Codec\nFormat profile : LC\nCodec ID : 40\nDuration : 39mn 9s\nBit rate mode : Variable\nBit rate : 96.0 Kbps\nChannel(s) : 2 channels\nChannel positions : Front: L R\nSampling rate : 44.1 KHz\nCompression mode : Lossy\nDelay relative to video : 69ms\nStream size : 26.9 MiB (3%)\nLanguage : English","torrent":{"xt":"urn:btih:6ce263c8ae8041a9cc3e9e11525c454f0338e794","amp;dn":"Candace+Cage+-+19+Year+Old+Mouthful","amp;tr":["udp%3A%2F%2Ftracker.openbittorrent.com%3A80","udp%3A%2F%2Fopen.demonii.com%3A1337","udp%3A%2F%2Ftracker.coppersurfer.tk%3A6969","udp%3A%2F%2Fexodus.desync.com%3A6969"],"infoHash":"6ce263c8ae8041a9cc3e9e11525c454f0338e794","infoHashBuffer":{"type":"Buffer","data":[108,226,99,200,174,128,65,169,204,62,158,17,82,92,69,79,3,56,231,148]},"announce":[],"urlList":[]}}